<svg id="Layer_1" data-name="Layer 1" xmlns="http://www.w3.org/2000/svg" viewBox="0 0 246.79 6.29"><title>micron_line</title><path d="M332,859.56c0.28-3.3,2.2-3.87,4.25-3.94,2.73-.1,5.47,0,8.2.16a53,53,0,0,0,12.44-.52c3.33-.62,6.86-0.08,10.29-0.25,13.65-.69,27.28-1.12,41-0.71,12.51,0.37,25-.16,37.56-0.14,6.59,0,13.19.36,19.78,0.56,9.35,0.29,18.69.7,28,.84,8,0.12,16.08-.34,24.11-0.07,12.51,0.42,25,1.39,37.51,1.78,4.12,0.13,8.26-.92,12.4-1.26a85.48,85.48,0,0,1,9.4-.26,2.57,2.57,0,0,1,1.84,1.73c0,0.74-1,1.52-1.73,2.06a3.45,3.45,0,0,1-1.68.12c-3,.11-6,0.22-9,0.31-5.16.16-10.33,0.6-15.47,0.39-13.23-.55-26.43-1.56-39.66-2.05-4.27-.16-8.57.77-12.86,1.08a86,86,0,0,1-11.19.48c-12-.71-24.06-1.87-36.1-2.48-5.71-.29-11.51-0.32-17.14,1.29a7.91,7.91,0,0,1-2.56.32c-6.87-.39-13.73-0.89-20.61-1.25-3.71-.19-7.44-0.35-11.16-0.24-8.88.28-17.74,0.78-26.62,1.09-3.16.11-6.34-.24-9.49-0.12-7.16.27-14.32,0.76-21.48,1.06C338.74,859.67,335.48,859.56,332,859.56Z" transform="translate(-331.99 -854.13)"/></svg>