<svg id="Layer_1" data-name="Layer 1" xmlns="http://www.w3.org/2000/svg" viewBox="0 0 297.5 15.08"><title>muji_line</title><path d="M636.92,1302.05c-1.46.67-2.18,1.31-2.81,1.23-14.66-1.79-29.33.62-44-.24-18.68-1.1-37.4-1.32-56.1-2.18-15.39-.71-30.76-1.8-46.14-2.7-1.87-.11-3.74-0.08-5.61-0.18-11.21-.6-22.43-1.12-33.64-1.86-13.79-.92-27.55-2.3-41.35-3a251.17,251.17,0,0,0-25.45.37,106.55,106.55,0,0,1-30.46-2.35c-2.63-.62-5.43-0.52-8.15-0.8-1-.1-1.89-0.34-3.76-0.68,1.4-.8,2-1.44,2.63-1.46a29.59,29.59,0,0,1,5.6.26c5.68,0.92,11.32,2.07,17,3a42.85,42.85,0,0,0,7.74.52c7.05-.19,14.1-0.82,21.15-0.81,7.76,0,15.53.4,23.28,0.86,11.35,0.67,22.69,1.65,34,2.33,14.09,0.85,28.19,1.58,42.28,2.3,15.25,0.78,30.5,1.47,45.74,2.21,2.88,0.14,5.75.42,8.62,0.5,11.66,0.35,23.32.63,35,1,8.34,0.24,16.68.66,25,.79,8.91,0.14,17.83,0,26.74.05A12.2,12.2,0,0,1,636.92,1302.05Z" transform="translate(-339.42 -1288.21)"/></svg>