<svg id="Layer_1" data-name="Layer 1" xmlns="http://www.w3.org/2000/svg" viewBox="0 0 41.95 16.18"><title>muji</title><path d="M801.31,1317.9c-2.71.67-3.14-.93-3.47-2.42s-0.42-3-.71-5.38c-1.83,2.62-3.62,3.38-5.6,1.47-1.8,2.09.12,5.21-3.17,7.19,0-2.18,0-3.79,0-5.4a24.91,24.91,0,0,1,.3-4.73,4.63,4.63,0,0,1,1.75-2.6c0.33-.22,1.57.73,2.29,1.28a11.83,11.83,0,0,1,1.53,1.88l3.44-5.46c2.33,0.7,2,2.35,2,3.68C799.45,1310.94,798.88,1314.48,801.31,1317.9Z" transform="translate(-788.35 -1303.73)"/><path d="M804.27,1306.6c1.83,3-.25,6.25,1,9.61,3.67-2.92,3.63-7.3,5.93-10.82a9,9,0,0,1,0,3,68.39,68.39,0,0,1-3.83,9c-1,1.87-2.76,1.75-3.78.22C802.26,1315.71,802.65,1308.9,804.27,1306.6Z" transform="translate(-788.35 -1303.73)"/><path d="M814.31,1318.21c4.89-3.84,4.88-8.12-.59-12.73l9.87-.62,0.28,0.71-3.79,2.13C820,1316.53,818.1,1319.95,814.31,1318.21Z" transform="translate(-788.35 -1303.73)"/><path d="M827.95,1319.86v-14.51c2.65,1.61,3.2,9.71.93,14.57Z" transform="translate(-788.35 -1303.73)"/></svg>