<svg id="Layer_1" data-name="Layer 1" xmlns="http://www.w3.org/2000/svg" viewBox="0 0 233.74 4.97"><title>pilot_line</title><path d="M343.07,1490.45a18.52,18.52,0,0,1,3.8-.91c5-.14,10.07,0,15.09-0.18,8.49-.31,17-1,25.45-1.16,15.69-.29,31.39-0.29,47.09-0.46,14.54-.16,29.09-0.64,43.63-0.51,14.25,0.13,28.5.92,42.75,1.29,12.38,0.32,24.76.45,37.14,0.65,5.46,0.09,10.93.18,16.39,0.22,1.48,0,2.56.3,2.36,2.22a2.63,2.63,0,0,1-1,.56c-16.83-.53-33.67-1.17-50.5-1.62s-34-.9-51-1c-13.67-.1-27.35.33-41,0.47-10.65.11-21.3,0-32,.23-8.2.19-16.38,0.88-24.57,1.18s-16.11.36-24.16,0.54c-1.72,0-3.45.18-5.17,0.2-1.36,0-2.71-.08-4.07-0.13Z" transform="translate(-343.07 -1487.2)"/></svg>