<svg id="Layer_1" data-name="Layer 1" xmlns="http://www.w3.org/2000/svg" viewBox="0 0 288.06 16.13"><title>sakura_line</title><path d="M556.19,725.77c-11.23-.27-22.46-0.59-33.69-0.8-4.89-.09-9.81.34-14.67,0a365.58,365.58,0,0,0-42.75-.6c-13.09.54-26.15,1.57-39.24,2.19-7.48.35-15,.21-22.46,0.44-11.37.35-22.73,0.88-34.1,1.23s-23,.63-34.54.77a20.26,20.26,0,0,1-6.3-1.2c-2.31-.74-3.28-2.63-3.24-5.06,0.06-3.19,1.19-4.38,4.44-4.42,6.62-.08,13.26.05,19.87-0.22,14.24-.6,28.46-1.52,42.69-2.07,8.34-.32,16.71.08,25.05-0.28,11.36-.49,22.69-1.64,34.05-2.07,17-.66,33.95-1.27,50.94-0.28,7.32,0.43,14.68.25,22,.37,8.93,0.15,17.86.51,26.79,0.44,12.67-.09,25.34-0.56,38-0.71q9.49-.11,19,0.38c3.35,0.17,4.26,1.18,4.92,3.89,1.08,4.4-.85,7.14-5.37,7.23-5.33.12-10.66-.1-16,0-8.06.12-16.12,0.39-24.19,0.55-3.74.07-7.48,0-11.23,0v0.26Z" transform="translate(-325.2 -712.84)"/></svg>