<svg id="Layer_1" data-name="Layer 1" xmlns="http://www.w3.org/2000/svg" viewBox="0 0 133.11 33.86"><defs><style>.cls-1{fill:#fff;}</style></defs><title>micron</title><path d="M785.94,868c-0.57-6.44-.72-12.95-3.45-19.13,1.87-1.2,3.13-.81,3.92,1a19.25,19.25,0,0,1,.88,2.88c1,4,2,8.07,3,12.13a14.3,14.3,0,0,1,.46,3.41c0,4.32-3.36,6.36-7,4-2.25-1.43-4.07-3.56-6-5.46-1-1-1.78-2.09-3.31-3.92a38.08,38.08,0,0,0-1.11,4.32c-0.37,3.14-.61,6.29-0.89,9.44-0.13,1.52-.45,3-2.3,3.09-2.17.11-2.55-1.57-2.58-3.22a23.39,23.39,0,0,1,.31-5.14c1.13-5.47,2.42-10.91,3.64-16.33,3.33-.76,4.23-0.45,5,2.66s2.76,5.65,4.77,8.05a23.13,23.13,0,0,0,3.49,2.85Z" transform="translate(-657.64 -848.21)"/><path d="M734.8,871.29c2,0.22,3.45.41,4.85,0.52,1.17,0.09,2.35.08,4,.14-2.89,3.47-9.4,4.44-15.14,2.53-0.28,1.38-.62,2.7-0.81,4s-0.91,2.6-2.42,2.51c-1.9-.11-2.21-1.67-2-3.19,0.27-1.84.88-3.63,1.19-5.47,0.69-4.1,1.26-8.23,1.91-12.33,0.33-2.1.72-4,3.77-3.4,0.9,0.17,2.23-1,3.09-1.79a6.71,6.71,0,0,1,5.81-2.17C742,853,743,854.31,741.84,857a50.93,50.93,0,0,1-3.43,6C737,865.39,735.31,867.74,734.8,871.29Zm3.1-16c-5,1.17-9.22,9.3-8.16,15C733.05,866.33,737.29,858.7,737.91,855.31Z" transform="translate(-657.64 -848.21)"/><path d="M657.64,878.36c0.18-2.29.25-4.07,0.47-5.84,0.47-3.71.94-7.42,1.57-11.1a12.32,12.32,0,0,1,1.5-4.45,3.77,3.77,0,0,1,2.85-1.37,2.82,2.82,0,0,1,1.77,2c0.36,2.53,1.93,4.17,3.72,5.62,2.51,2,4.57,1.58,5.82-1.38a21.29,21.29,0,0,0,1-5c0.18-1.19.28-2.36,1.86-2.41,1.8-.06,2.12,1.18,2.15,2.58a20.32,20.32,0,0,1-.13,3c-0.49,3.87-.87,7.72.31,11.56,0.51,1.65.47,3.25-1.66,3.73-1.77.4-2.66-.68-2.85-3.36-0.12-1.67-.2-3.34-0.29-4.93-2.65,0-5.11.59-7.06-.16s-3.42-2.84-5.61-4.79a34.69,34.69,0,0,0-1.16,5c-0.2,2.43-.07,4.89-0.1,7.34C661.79,876.51,661,878,657.64,878.36Z" transform="translate(-657.64 -848.21)"/><path d="M717.44,878c-3.69,4.37-8.39,5-12.34,2.38-4.61-3-6-7.25-4.17-12.29,1.24-3.36,2.12-6.91,4.89-9.46a12.18,12.18,0,0,1,3.07-2.27c4.77-2.13,7.16-.22,6.69,5.21a1.48,1.48,0,0,1-.76-0.13c-2.81-4.19-4.65-4-7.43.16a19.8,19.8,0,0,0-2.91,9.34c-0.45,4.37,2.28,7.42,6.74,7.45C713.29,878.38,715.37,878.11,717.44,878Z" transform="translate(-657.64 -848.21)"/><path d="M689.1,869.18c0.22-3.16.42-6.31,0.66-9.47a5.15,5.15,0,0,1,.45-2.5,3.87,3.87,0,0,1,2.35-1.29,2.73,2.73,0,0,1,1.11,1.92c-0.09,3.44-.54,6.88-0.55,10.31s0.35,6.87.55,10.3c0,0.29.12,0.57,0.11,0.85,0,1.36-.22,2.76-2,2.77-1.54,0-2.26-1.07-2.37-2.55-0.09-1.29-.18-2.59-0.19-3.88,0-2.15,0-4.31,0-6.47H689.1Z" transform="translate(-657.64 -848.21)"/><path class="cls-1" d="M758.66,861.1c2.61,4.11,2.22,9.46-.84,11.86-0.79.62-2.29,1.16-3,.8s-1.21-1.86-1.25-2.87C753.46,868,755.87,863.49,758.66,861.1Z" transform="translate(-657.64 -848.21)"/></svg>