<svg id="Layer_1" data-name="Layer 1" xmlns="http://www.w3.org/2000/svg" viewBox="0 0 57.64 21.52"><defs><style>.cls-1{fill:#fff;}</style></defs><title>pilot</title><path d="M668.21,1503.4c-2.89-4.44.05-9.45-1.67-14.1-2.24-.14-3.2.71-3.24,3.17a17.44,17.44,0,0,1-1.27,6.22,5.35,5.35,0,0,1-6.65,3.36,5.87,5.87,0,0,1-3.7-6.19,10.55,10.55,0,0,1,4.3-8c2.79,1,5.33.41,8.19-1.23,3.52-2,7.78-1.75,11.78-1.58l0.28,1.18-5.69,2.19C669.23,1493.39,670.68,1498.68,668.21,1503.4Zm-13.69-7c0,2,1,3.2,2.72,3.15,2.15-.06,3.92-2.56,3.83-5.4-0.07-2.36-1-3.47-2.95-3.37S654.47,1493.63,654.52,1496.37Z" transform="translate(-618.59 -1484.96)"/><path d="M619.92,1506.48c-2-3.81-1.65-13.5.22-18,1.84-.48,3.36-0.84,4.85-1.28,1.92-.56,3.87-1.49,5.58.39,1.26,1.39,1.32,3.87-.27,6a74,74,0,0,1-5.75,6.35c-1.36,1.43-3,2.56-3,4.92C621.55,1505.32,620.54,1505.87,619.92,1506.48Zm8.74-17c-4.85.3-7.12,3.58-6.12,8.68C625.3,1495.65,628.47,1493.74,628.66,1489.45Z" transform="translate(-618.59 -1484.96)"/><path d="M644.14,1499.78l4.5,0.34c-0.79,2.84-3.06,2.38-4.79,2.52a2.66,2.66,0,0,1-3-2.52,19.1,19.1,0,0,1,3.75-13.31,3.6,3.6,0,0,1,1.34-.18C646.38,1491.11,642.21,1495.07,644.14,1499.78Z" transform="translate(-618.59 -1484.96)"/><path d="M636,1487.31a22,22,0,0,1,.33,3.34c-0.31,3.82-.63,7.65-1.13,11.45-0.1.77-1,1.44-1.51,2.15-0.49-.59-1.46-1.24-1.4-1.77,0.54-4.66,1.24-9.29,2-13.93C634.32,1488.27,634.93,1488.08,636,1487.31Z" transform="translate(-618.59 -1484.96)"/><path class="cls-1" d="M654.52,1496.37c-0.05-2.74,1.73-5.53,3.61-5.62s2.88,1,2.95,3.37c0.09,2.84-1.68,5.34-3.83,5.4C655.57,1499.57,654.56,1498.4,654.52,1496.37Z" transform="translate(-618.59 -1484.96)"/><path class="cls-1" d="M628.66,1489.45c-0.19,4.29-3.36,6.2-6.12,8.68C621.55,1493,623.81,1489.75,628.66,1489.45Z" transform="translate(-618.59 -1484.96)"/></svg>