<svg id="Layer_1" data-name="Layer 1" xmlns="http://www.w3.org/2000/svg" viewBox="0 0 265.21 82.64"><title>prismacolor_line</title><path d="M355,1169.21c7.49,0,15-.25,22.47.05,14.52,0.6,29.06,1.22,43.54,2.37,20.08,1.59,40.12,3.71,60.18,5.54,5.44,0.5,11,.31,16.34,1.22,12.78,2.17,25.72,2.4,38.57,3.67,2,0.2,4,.47,6,0.74,10.84,1.45,21.7,2.78,32.51,4.42a66.05,66.05,0,0,1,10.81,2.92,19.64,19.64,0,0,1,4.86,2.75,3.74,3.74,0,0,1,1.17,4.66c-0.69,1.81-2.53,2-4.06,1.43-4-1.51-7.9-.91-11.91-0.43a21.8,21.8,0,0,1-4.65-.38l-53.6-5.46a4.2,4.2,0,0,0-1.7-.2c-4.06,1.67-7.9-.09-11.81-0.63-13-1.78-25.92-3.7-38.9-5.33-9.84-1.24-19.73-2.09-29.59-3.2-4.85-.54-9.66-1.64-14.51-1.85-9.63-.4-19.28-0.35-28.91-0.5-4.89-.08-9.78-0.14-14.66-0.3-13.65-.45-27.31-0.84-40.95-1.53a16.14,16.14,0,0,1-7.17-2.53c-1.23-.75-2.11-2.71-2.38-4.26-0.38-2.19,1-3.49,3.33-3.5,8.35,0,16.7,0,25,0v0.33Z" transform="translate(-326.56 -1116.64)"/><path d="M345.9,1119.49c3.2-2.51,6.44-2.24,9.55-2.42,13.39-.77,26.76-0.38,40.15.16,28.78,1.18,57.58,1.45,86.39,1.53,16.53,0,33.06,1.8,49.59,2.66,7.33,0.38,14.68.44,22,.69,1.79,0.06,4.34-.5,4.72,1.84,0.42,2.57-2.6,2.64-4,2.91a50.42,50.42,0,0,1-11.55.88c-10.21-.47-20.39-1.58-30.6-1.91-16.4-.54-32.82-0.68-49.23-0.94-13.82-.22-27.65-0.32-41.47-0.56-8.06-.14-16.12-0.42-24.18-0.7-5.46-.19-10.92-0.6-16.38-0.75-9.2-.26-18.41-0.49-27.62-0.54A10.07,10.07,0,0,1,345.9,1119.49Z" transform="translate(-326.56 -1116.64)"/></svg>