<svg id="Layer_1" data-name="Layer 1" xmlns="http://www.w3.org/2000/svg" viewBox="0 0 255.32 47.02"><defs><style>.cls-1{fill:#fff;}</style></defs><title>prismacolor</title><path d="M766.84,1153.49c-0.49,1.44-1,2.87-1.47,4.32-0.34,1.1-.47,2.27-0.87,3.34-1.36,3.6-3.42,4.35-6.69,2.44a23.43,23.43,0,0,1-2.37-1.89,14.84,14.84,0,0,0-1.1,3.19,55.18,55.18,0,0,0-.09,5.6c0,2.87-.77,4.22-2.51,4.22-2.26,0-4.59-2.08-4.44-4.39a34.4,34.4,0,0,1,1.21-6.34c1.59-6.11,3.37-12.18,4.87-18.31,1.19-4.9,3.11-5.81,7.48-3.18a12.24,12.24,0,0,0,1.58.61c0.76-1.13,1.56-2.26,2.29-3.44a6.27,6.27,0,0,1,6.16-3.17c2.87,0.22,4.38,2.14,4.68,4.84a91.27,91.27,0,0,1,.68,10.26c0,3.27-.45,6.55.09,10.15a8.15,8.15,0,0,0,1.46-2c1.65-5.05,3.19-10.14,4.77-15.21a27.41,27.41,0,0,1,1.25-3.67c1.58-3.31,4.74-3.89,7.31-1.23a13.71,13.71,0,0,1,2.43,4c1.42,3.25.54,7.2,3,10.17a1.13,1.13,0,0,1-.06.83c-1.8,5.45-.43,11.14-1.27,16.67-0.27,1.79,0,4-2.62,4.21s-4.1-1-4.58-4.08c-0.41-2.55-.38-5.17-0.82-7.72a3.6,3.6,0,0,0-1.81-2.43c-1.37-.51-2,0.77-2.27,1.95a72.3,72.3,0,0,0-1.48,8c-0.19,2-.36,3.79-2.22,4.83s-3.06-.56-4.61-1c-5.22-1.64-5.85-5.92-6.44-10.15-0.51-3.67-.45-7.42-0.65-11.14Z" transform="translate(-668.61 -1133.84)"/><path d="M857.44,1172.35c4.11-.06,6.45-1.79,8.78-3.4,1.78-1.22,1.07-3.15.89-4.81a32.08,32.08,0,0,1,5.52-22.14c4.51-6.71,10.11-5.9,15.9-3.13,1.2,0.57,2,3.19,2,4.86,0,5-.42,10.06-0.87,15.07a45.32,45.32,0,0,1-1.37,6.33c-1.08,4.52-4.12,7.54-7.9,9.85-2.78,1.7-5.59.71-8.24-.6a19.3,19.3,0,0,1-2.48-1.74c-2.34,2.13-4.5,4.19-6.76,6.15-4.05,3.51-9.1,2.47-11.47-2.3a17.08,17.08,0,0,1-1.58-9.65c0.86-8.25,3.4-16,6.37-23.69a20.38,20.38,0,0,1,2-3.82c1.47-2.23,3.08-2.83,5.09-2.09a4.19,4.19,0,0,1,2.22,5.07c-0.58,2.37-1.54,4.64-2.32,7-1.75,5.18-3.66,10.32-5.16,15.57C857.43,1167.08,857.64,1169.55,857.44,1172.35Zm27.22-33.62-1,.07c-0.69,1.4-1.06,3.11-2.12,4.13-2.83,2.73-3.86,6.36-5.33,9.75a19.83,19.83,0,0,0-1.55,11.41c0.22,1.29.95,3.18,1.86,3.46s2.66-.72,3.62-1.62a10.77,10.77,0,0,0,2.58-3.92c2.41-6.37,4-12.91,3.17-19.8A17.29,17.29,0,0,0,884.66,1138.73Z" transform="translate(-668.61 -1133.84)"/><path d="M827.56,1159.13a3.17,3.17,0,0,0-.85.43c-0.78,5.83-5.09,8.91-9.2,12.31-2.69,2.22-5.5,1.95-8.1.93-2.78-1.09-4.29-3.56-4.36-6.85-0.13-5.81,1.69-11.09,4.15-16.16a57.64,57.64,0,0,1,4.91-7.54,7.42,7.42,0,0,1,2-1.68,4,4,0,0,1,5.42.48,3.26,3.26,0,0,1-.44,4.68c-3,2.94-4.32,6.79-5.92,10.44-1.18,2.68-1.63,5.69-2.42,8.59,2.37,1.15,3.59-.11,4.78-1a67,67,0,0,0,7.14-5.57,13.08,13.08,0,0,0,3-4.6c1.12-2.8,1.69-5.82,2.82-8.61a21.93,21.93,0,0,1,3.29-5.53c1.6-2,3.26-4.27,6.46-3.09,3.6,1.33,7.5,2.85,7.5,7.3a64.69,64.69,0,0,1-1.68,14.95c-1,4.19-5,5.94-8.89,6.57-3.74.6-6.7-1.17-8.45-4.69A9.09,9.09,0,0,0,827.56,1159.13Zm14.88-15.78a18.38,18.38,0,0,0-5.8,13.89c1.64,0.41,2.42-.7,3-1.88A37.77,37.77,0,0,0,842.44,1143.34Z" transform="translate(-668.61 -1133.84)"/><path d="M904.68,1160.87c7,1.73,13-1.88,19.26-1.05-1.38,7.65-15.28,11.15-24.65,6.3-0.18,1-.38,1.88-0.5,2.77a7.88,7.88,0,0,1-.2,2.13c-0.76,1.62-1.14,3.7-3.54,3.8s-3.45-1.52-3.95-3.34a14.66,14.66,0,0,1-.46-5.52c0.92-7.56,2-15.11,3.16-22.64a14.75,14.75,0,0,1,1.5-3.57,3.74,3.74,0,0,1,1.28-.29c3.52,1.33,5.84,0,7.87-3a6.42,6.42,0,0,1,4.1-2.6c3.07-.3,5.1,2,4.55,5.35a45,45,0,0,1-2.89,9.39c-1,2.38-2.55,4.51-3.66,6.84A50.57,50.57,0,0,0,904.68,1160.87Z" transform="translate(-668.61 -1133.84)"/><path d="M704.11,1161.12l7.25-3.22c0.79,5.29-2.43,7.33-5.43,9.52s-5.72,5.09-10.24,3.38c-0.31.74-.62,1.35-0.82,2-0.48,1.53-.8,3.16-3,2.94a4.58,4.58,0,0,1-4.22-3.68,9.32,9.32,0,0,1,0-2.59c0.59-5,1.14-10,1.89-15,0.44-2.89,1.24-5.47,4.92-6.23,1.29-.27,2.24-2.42,3.24-3.78,2.26-3.1,6.92-3.78,9.31-1.06a6.7,6.7,0,0,1,1.58,4.2,20.5,20.5,0,0,1-1.41,5.82C706.36,1155.72,705.37,1157.94,704.11,1161.12Z" transform="translate(-668.61 -1133.84)"/><path d="M668.61,1163.11c0.6-4.25,1.23-8.49,1.78-12.74,0.3-2.3,1.6-3.19,3.81-3.13a25.48,25.48,0,0,0,3.42-.21c3.52-.38,6,1.43,6,4.89a17.65,17.65,0,0,1-1,6.31c-1.35,3.61-3.19,7-4.7,10.58a9.08,9.08,0,0,0-.31,6.62c0.42,1.89.77,3.87-1.45,4.79-1.92.79-5.1-1.13-5.71-3.42a45.83,45.83,0,0,1-1.27-7.19c-0.21-2.13,0-4.3,0-6.45Z" transform="translate(-668.61 -1133.84)"/><path d="M730.59,1177.65a19.43,19.43,0,0,1-2.68-.76c-3.62-1.55-3.78-3.23-.58-5.62,0.46-.34.93-0.68,1.37-1,4.35-3.5,4.49-4.73,1-9-4.51-5.52-4-12.86,1.4-18.52,1.89-2,3.74-4,6.91-3.72,1.57,0.13,2.76.48,3.31,2.14a3.27,3.27,0,0,1-1,3.86,25.71,25.71,0,0,0-2.68,2.15,34.62,34.62,0,0,0-3.43,4.38,4.27,4.27,0,0,0,.5,5.54c1,1.19,2.14,2.34,3.08,3.6,4.83,6.49,2.09,14.57-5.65,16.73C731.67,1177.51,731.24,1177.54,730.59,1177.65Z" transform="translate(-668.61 -1133.84)"/><path d="M714,1163.8c0.7-5.4,1.31-10.39,2-15.37a22.91,22.91,0,0,1,.93-3.76c1.11-3.48,2.36-4.6,4.51-4.14,1.86,0.39,3.37,2.64,3.2,5.52-0.19,3.29-.86,6.54-1.17,9.83-0.37,3.87-2.39,7.86.65,11.54-0.45,2.64-.58,5.39-1.45,7.89-0.65,1.88-3.18,2.27-4.72.76a11.84,11.84,0,0,1-3.11-5C714.12,1168.65,714.18,1166,714,1163.8Z" transform="translate(-668.61 -1133.84)"/><path class="cls-1" d="M842.44,1143.34a37.77,37.77,0,0,1-2.85,12c-0.54,1.18-1.31,2.29-3,1.88A18.38,18.38,0,0,1,842.44,1143.34Z" transform="translate(-668.61 -1133.84)"/></svg>