<svg id="Layer_1" data-name="Layer 1" xmlns="http://www.w3.org/2000/svg" viewBox="0 0 185.14 51.33"><title>sakura</title><path d="M893.58,729.77c-3.57.05-4.31,2-4.77,4.25-0.6,3-1.21,5.92-1.79,8.89-0.39,2-1.42,3.45-3.54,3.84a4.78,4.78,0,0,1-4.88-2c-2-2.54-2.26-5.53-2.28-8.57,0-1.42.18-2.83,0.29-4.47l-21.37,2.47c0,1.22,0,2.6,0,4a4.74,4.74,0,0,1-3,4.41c-1.88.82-3.43-.25-4.67-1.43a15.16,15.16,0,0,1-4.43-11.81c0.2-6.6.95-13.19,1.79-19.75a6.93,6.93,0,0,1,5.63-5.88,82.72,82.72,0,0,1,10.52-2.08c3-.34,6.17,0,8,3s1.33,5.85-.67,8.46-4.33,5.25-7,8.49h18.15c0.9-2.4,2-5.48,3.2-8.5,1.37-3.32,2.82-6.61,4.39-9.84,1.05-2.16,2.61-3.78,5.34-3.71a7.18,7.18,0,0,0,2.08-.51c4.54-1.33,8.42.89,9.29,5.52a43.4,43.4,0,0,1,.57,6.45c0.26,7,.45,14.1.66,21.14a21.73,21.73,0,0,1,0,3c-0.36,3.27-1.91,5.13-4.19,5.16-2.6,0-5.82-2.45-6.34-5C894.18,733.55,893.92,731.74,893.58,729.77Z" transform="translate(-720.01 -698.64)"/><path d="M792.42,712.71c2-1.19,3.94-2.37,5.91-3.5a5.69,5.69,0,0,1,7.29,1.3c1.7,2.16,1.56,4.76-.82,6.94a54.35,54.35,0,0,1-6.29,4.52c-3.18,2.16-4,3-5.31,6.21,2.07,0,4,0,6,0,3.74-.07,7.49-0.36,11.21-0.15a6.15,6.15,0,0,1,3.92,2.11c2,2.49,1.74,4.4-.94,6.12a17.72,17.72,0,0,1-6.29,2.62c-4.53.8-9.13,1.2-13.72,1.59-2.16.18-3.59,0.74-4.76,2.86-1.89,3.41-5.26,3.42-7.65.25a7.57,7.57,0,0,1-1.59-3.9,100.55,100.55,0,0,1,.11-11.57c0.23-3.29.91-6.56,1.42-9.83a27.86,27.86,0,0,1,.91-4.65c1.46-4.28,5.27-5.3,8.79-2.45Z" transform="translate(-720.01 -698.64)"/><path d="M764.1,736.93c-3.06.7-4,2.78-5,4.88a37.14,37.14,0,0,1-1.85,4.35c-1.78,2.88-5.29,3.33-7.17.58-1.38-2-2.86-5-2.36-7.07,2.29-9.52,5.87-18.59,11.84-26.56,2.12-2.82,4.61-2.86,7.64-2.26s4.73,2.69,5.37,5.49c0.58,2.51.71,5.12,1,7.69,0.52,4.13,1.09,8.25,1.54,12.39a18,18,0,0,1,.1,5.54c-0.83,3.87-4.29,5-7.13,2.23-1.36-1.31-2-3.41-2.9-5.14Z" transform="translate(-720.01 -698.64)"/><path d="M828.2,727.84c3.08-1.86,3.88-4.34,4.55-7,0.78-3.06,1.5-6.15,2.57-9.11s2.6-3.15,4.64-.79a6.34,6.34,0,0,1,1.44,3c0.91,5.9.82,11.79-1.25,17.46-1.75,4.8-5.54,7.7-10.16,9.32s-10-1.82-11.81-7c-2.07-5.74-1.2-11.38.6-16.92a32.46,32.46,0,0,1,3.37-7c2-3.2,4.46-3.84,7.29-2.27s3.47,4.24,2.21,7.47c-1.19,3.06-2.36,6.14-3.4,9.26C828,725.22,828.2,726.23,828.2,727.84Z" transform="translate(-720.01 -698.64)"/><path d="M737,724.72c3.49-.16,6,1.42,8.29,3.69,2.79,2.8,3,6,.15,8.67a76,76,0,0,1-16.89,11.87,7.65,7.65,0,0,1-2,.68c-2.15.44-4.37,0.82-5.93-1.25-1.16-1.54-.34-4.74,1.65-6.56s4-3.34,5.93-5c0.75-.64,1.43-1.35,2.37-2.23-0.78-.84-1.41-1.57-2.08-2.24A9.35,9.35,0,0,1,727,720.89a15.32,15.32,0,0,1,4.1-4.34,26.79,26.79,0,0,1,12.14-4.17,9.63,9.63,0,0,1,4.66.52,5.37,5.37,0,0,1,2.63,2.95c0.49,1.48-.52,2.78-2,3.39-1.19.49-2.44,0.85-3.67,1.24A21,21,0,0,0,737,724.72Z" transform="translate(-720.01 -698.64)"/></svg>