<svg id="Layer_1" data-name="Layer 1" xmlns="http://www.w3.org/2000/svg" viewBox="0 0 162.31 55.3"><defs><style>.cls-1{fill:#fff;}</style></defs><title>stabilo</title><path d="M652.89,983.25c-3,.22-3.69,1.88-4,3.83-0.48,2.7-.9,5.4-1.36,8.1-0.31,1.78-1,3.48-2.84,4-2.08.56-3.73-.64-4.76-2.26a11.76,11.76,0,0,1-1.79-4.69c-0.71-5.87,1.23-11.39,2.61-17,0.68-2.75,1.32-5.5,2-8.35-4.2,0-5.35.57-6.08,3.69-1.69,7.26-4.34,14.35-4,22,0.14,3.15-1.35,5.37-3.11,5.57s-3.9-1.72-4.42-4.66a35.76,35.76,0,0,1-.25-9.38c0.28-3,1.23-5.89,2-9.26a33.6,33.6,0,0,1-3.47.17,4.5,4.5,0,0,1-4.33-3,4.82,4.82,0,0,1,2-5.27c3.79-2.59,7.38-5.7,11.52-7.5s8.82-2.32,13.29-3.22c0.87-.17,1.9.51,2.87,0.77a41.89,41.89,0,0,0,5,1.2,7.43,7.43,0,0,1,6.79,5.72c0.8,2.73,1.93,5.37,2.72,8.11a4.82,4.82,0,0,1-.07,3.32c-1.39,2.47-1.1,5-.91,7.59,0.24,3.3.5,6.61,0.75,9.91,0,0.57.08,1.15,0.07,1.73-0.08,3.23-1.26,5.27-3.16,5.51s-4.69-2.49-5.11-5.1-0.66-5.43-1-8.14C653.53,985.56,653.18,984.49,652.89,983.25Z" transform="translate(-591.21 -948.18)"/><path d="M733.25,985.48c-2.58,2.37-3.64,5.91-7.51,6.47a34.12,34.12,0,0,1-14.09-.76c-4.58-1.25-8.31-7.21-6.8-11.94,2.4-7.53,5.06-15,7.67-22.45a18.52,18.52,0,0,1,1.73-3c1.09-1.87,2.59-2.64,4.71-1.76a4.37,4.37,0,0,1,3,4.74,35.26,35.26,0,0,1-1.65,4.88c-2.22,6.52-4.44,13-6.62,19.42,4.81,3,11.07,2.59,14.35-.82a5.18,5.18,0,0,0,1.28-3.46c-0.45-9.68,3.76-17.57,9.31-25,0.35-.46.72-0.9,1.09-1.34,1-1.2,2.22-2.91,3.86-2.11s3.27,2.3,3.6,3.78c0.48,2.19,1.71,3.45,3,5a11.55,11.55,0,0,1,2.88,5.16c0.91,5.75.68,11.51-1.86,16.94-3.15,6.74-9.57,9.31-16.49,6.62C734.29,985.72,733.86,985.65,733.25,985.48Zm9.9-23c-4.2,5.22-5.48,10.7-3.45,14C744.86,973.57,746.26,968.3,743.15,962.45Z" transform="translate(-591.21 -948.18)"/><path d="M669.29,993.58c-3.12-4.56-3.28-9.87-2.93-15.22,0.36-5.59.89-11.16,3.16-16.41,0.61-1.42,1.19-2.43,2.83-2.85a23.74,23.74,0,0,0,3.87-1.81,19.63,19.63,0,0,1,3.16-1.35c5.75-1.51,9.84,2.23,8.65,8a23.39,23.39,0,0,1-2,5.19c-0.79,1.67-1.79,3.24-2.58,4.65a3.32,3.32,0,0,0,.38,1.11c4.46,3.8,5.17,5.68,3.1,11.2A33,33,0,0,1,674,1002.35a6.67,6.67,0,0,1-2.76,1.08c-3.6.44-5.85-2.48-4.46-5.81A33.06,33.06,0,0,1,669.29,993.58Z" transform="translate(-591.21 -948.18)"/><path d="M608.5,983.64c-1.32-.7-2.61-1.49-4-2.08-2.5-1.09-5.19-1.82-7.56-3.13-5.56-3.06-6-8.26-.66-12,3.86-2.69,8.25-4.62,12.45-6.81a15.86,15.86,0,0,1,3.65-1.28c2.3-.55,3.54.14,4.46,2.27s0.43,3.69-1.59,4.75c-1.64.86-3.5,1.28-5.22,2-2.47,1.06-4.89,2.23-7.44,3.41,1,2.54,3.11,2.61,4.65,3.47,2.37,1.32,5,2.3,7.08,4,4.91,4.12,4.92,8.83-.31,13-4.68,3.74-10.37,5.51-16.14,6.91a8,8,0,0,1-1.72.17c-2,0-3.76-.6-4.72-2.41-0.78-1.48.32-3.47,2.71-4.74s4.72-2.09,7.07-3.16,4.85-2.27,7.28-3.41Z" transform="translate(-591.21 -948.18)"/><path d="M706.32,957.95c-1.37,6.31-2.81,12.6-4.1,18.93-1.17,5.75-2.26,11.53-3.19,17.32-0.56,3.49-1.71,5.21-4,5.1s-5.17-3-5.2-5.49a33.41,33.41,0,0,1,.59-6.85c1-4.93,2.17-9.81,3.25-14.71s2.11-10.11,3.36-15.12c0.49-1.95.66-4.36,3.42-4.86C704,951.59,706.07,953.63,706.32,957.95Z" transform="translate(-591.21 -948.18)"/><path class="cls-1" d="M743.15,962.45c3.11,5.84,1.71,11.12-3.45,14C737.67,973.15,739,967.67,743.15,962.45Z" transform="translate(-591.21 -948.18)"/></svg>