<svg id="Layer_1" data-name="Layer 1" xmlns="http://www.w3.org/2000/svg" viewBox="0 0 219.01 18.58"><title>stabilo_line</title><path d="M468.76,965.88c14.68,0.52,29.35,1.24,44,1.48,10.79,0.17,21.6-.32,32.39-0.5a8.53,8.53,0,0,1,2.56.13c1.37,0.41,3.11,3.62,2.86,5-0.3,1.59-2.16,2.9-4.27,3-8.91.29-17.83,0.84-26.74,0.79-12.24-.06-24.47-0.57-36.7-0.91-17.28-.49-34.56-0.85-51.83-1.56-8.47-.35-16.91-1.55-25.38-2-10.06-.54-20.14-0.6-30.21-1-10.78-.45-21.58-0.8-32.32-1.76-3.25-.29-6.39-2.31-9.46-3.81a3.76,3.76,0,0,1-2-4c0.27-2.82,2.16-4.33,4.69-3.15,7.44,3.46,15.39,3.43,23.29,3.67,6.91,0.21,13.84-.18,20.74.1,11.65,0.47,23.28,1.26,34.92,1.93,8.34,0.48,16.67,1,25,1.48,9.49,0.49,19,.87,28.48,1.3v-0.14Z" transform="translate(-331.61 -957.14)"/></svg>