<?xml version="1.0" encoding="utf-8"?>
<!-- Generator: Adobe Illustrator 19.2.1, SVG Export Plug-In . SVG Version: 6.00 Build 0)  -->
<svg version="1.1" id="Layer_1" xmlns="http://www.w3.org/2000/svg" xmlns:xlink="http://www.w3.org/1999/xlink" x="0px" y="0px"
	 viewBox="0 0 397.3 25.9" style="enable-background:new 0 0 397.3 25.9;" xml:space="preserve">
<style type="text/css">
	.st0{fill:#A8A8A8;}
</style>
<path class="st0" d="M130.2,5.8c19.9,0.1,39.6,2.4,59.4,3.4c17.5,0.9,35,0.5,52.6,0.7c34.9,0.8,69.8,2.3,104.6,5.4
	c13.6,1.2,27.1,3.2,40.8,2.6c0.7,0,1.3,0,2,0c2.9,0.3,7.1-0.7,7.6,3c0.6,4.6-4,4.3-7.1,5c-10.6-3.1-21.7-3.7-32.5-3.7
	C337.5,22,317.8,18.7,298,17c-9-0.8-17.9-1.1-26.9-1.1c-25.6-0.1-51.3,0-76.9,0c-3.3,0-6.6-0.1-9.9-0.1c0,0,0,0,0,0
	c-6.4-3-13.3-1.6-20-2c-4.1-1.7-8.3-1.1-12.6-0.5c-2.3,1.2-4.2,0.9-5.5-1.5c-3.1-1.5-6.4-1.9-9.7-1.9c-42,0.3-83.7-6.5-125.7-4.1
	C7.1,6,3.4,5.6,0,4.1c1.5-5.2,5.7-2.8,8.7-2.9c11.1-0.4,22.1-0.7,33.2,0.5c4,0.4,8.6,1.7,12.3-1.7C73,1.5,91.7,2.8,110.5,4.7
	C117.1,5.3,123.6,6,130.2,5.8z"/>
</svg>
