<svg id="Layer_1" data-name="Layer 1" xmlns="http://www.w3.org/2000/svg" viewBox="0 0 127.91 38.46"><defs><style>.cls-1{fill:#fff;}</style></defs><title>tombow</title><path d="M863.13,570.31l5.46,3.29c1.3-3.71,2.26-7.15,3.71-10.37a41.3,41.3,0,0,1,4.49-7.31,5.93,5.93,0,0,1,3.17-2c2-.5,3.49,1.23,2.46,3-1.37,2.43-1.28,4.23.93,6a4.17,4.17,0,0,1,.94,1.91c1.79,5.29-.9,14.14-5.34,17.65-3.8,3-6.11,2.55-8.69-1.71-0.36-.59-0.76-1.16-1.49-2.27l-2.39,3.22c-3,4.09-6.28,7.8-11.82,8.61-2,.29-3.3-0.13-4-1,0.31-4.91.42-9.14,0.88-13.33,0.58-5.28,1.45-10.53,2.2-15.79a1.41,1.41,0,0,1,.2-0.82c2.75-1.7,3.37-5.52,6.79-6.64,3.57-1.17,4.92-1,7.24,1.73,1.73,2,1.7,4.35.07,7.13S864.91,567.11,863.13,570.31Zm11.11,9.86,1.12,0.77c1.24-1,2.88-1.76,3.63-3,2.16-3.68,3.09-7.68,1.4-11.87a17.44,17.44,0,0,0-1.81-2.69A25.48,25.48,0,0,0,874.24,580.17Zm-11.42-5.38c-4.93.6-5.71,1.8-5.64,8.21C860.33,581.15,863,579.22,862.82,574.79Zm-4.36-16.26,1.65,4.23,0.91,0.1,2.53-5.82Z" transform="translate(-790.61 -552.12)"/><path d="M808.6,560.94c-4.72.71-5.29,1.15-5.79,4.85-0.66,4.85-1.06,9.73-1.84,14.56a34.07,34.07,0,0,1-2.22,7.4,3.4,3.4,0,0,1-2.58,1.6c-0.55,0-1.43-1.31-1.66-2.17a9.22,9.22,0,0,1,.23-3c0.5-5.41,1-10.82,1.5-16.33a27.87,27.87,0,0,1-4.18-1.18c-1.79-.85-2-2.69-0.33-3.7,5.24-3.24,10.46-6.55,16.66-7.78,3.51-.7,4.57-0.4,6.62,2.43a11.63,11.63,0,0,0,.66,1.11c7,7.66,5.31,16.08,2,24.53a11.71,11.71,0,0,1-3.15,4,3.77,3.77,0,0,1-5.93-.79c-1.27-2.05-2.59-4.18-2.27-6.83,0.59-4.84,1.14-9.69,1.72-14.53C808.21,563.8,808.4,562.44,808.6,560.94Zm6.24,2.43A36.68,36.68,0,0,0,811,583a5.23,5.23,0,0,0,4.89-3.61C817.91,574,818.12,568.64,814.83,563.37Z" transform="translate(-790.61 -552.12)"/><path d="M825.46,559.39c1.83-.34,4,1.09,5.05-1.47,0.13-.32,2-0.39,2.66.06a17.18,17.18,0,0,1,3.15,3.46,38.55,38.55,0,0,1,2.06,3.32c3.47-2.11,3-6.09,5.13-8.57,3.83-.1,5.16,1.3,5.06,5.42-0.11,4.89-.3,9.78-0.4,14.68,0,1.58.17,3.16,0.16,4.74,0,1.21-.17,2.42-0.31,4.21-6-2.53-3.49-8.41-5.82-11.93-1.93.41-1.57,1.91-1.93,3.07-0.31,1-.7,2.43-1.42,2.69-1.53.56-2.77-.49-3.35-2a29.75,29.75,0,0,1-1-3.74c-0.68-2.72-1.33-5.46-2.22-9.12-1,1.66-1.64,2.4-1.82,3.25-1,4.49-1.76,9-2.72,13.52-0.6,2.8-1.28,5.6-2.14,8.33a2.62,2.62,0,0,1-2,1.22,2,2,0,0,1-1.39-1.36,17.7,17.7,0,0,1-.48-5.12c0.66-6.14,1.48-12.26,2.35-18.37C824.4,563.6,825,561.52,825.46,559.39Z" transform="translate(-790.61 -552.12)"/><path d="M914.69,553.55c2.9,1.22,3.86,2.95,3.83,5.29-0.06,4.45-.26,8.89-0.23,13.34a5.15,5.15,0,0,1-2.48,4.71c-4.45,2.83-9.73,4.12-12.75-2a11.67,11.67,0,0,0-1.64-1.91,13.31,13.31,0,0,0-2.06,2.07c-1,1.58-1.77,3.28-2.67,4.92-0.73,1.33-1.13,3.43-3.17,2.84a4.15,4.15,0,0,1-2.95-4.31c0.06-2.73.22-5.46,0.43-8.18,0.31-4,.69-8,1.07-12,0.1-1.08.34-2.14,0.52-3.26,3.38,0.35,4.21,2.52,4.17,4.91-0.06,3.43-.55,6.86-0.85,10.28-0.08.9-.11,1.81-0.18,3.07,2.77-1,3.39-3,4.28-4.94,0.47-1,1.88-2.62,2.35-2.46a6.51,6.51,0,0,1,3,2.63c0.58,0.9.48,2.22,0.76,3.33,0.41,1.61,1,3.15,3.1,2.9a3.32,3.32,0,0,0,3.22-3.4c0.29-4.3.63-8.6,1.09-12.88A43.43,43.43,0,0,1,914.69,553.55Z" transform="translate(-790.61 -552.12)"/><path class="cls-1" d="M814.83,563.37c3.28,5.27,3.08,10.66,1,16A5.23,5.23,0,0,1,811,583,36.68,36.68,0,0,1,814.83,563.37Z" transform="translate(-790.61 -552.12)"/></svg>