<svg id="Layer_1" data-name="Layer 1" xmlns="http://www.w3.org/2000/svg" viewBox="0 0 350.9 63.28"><title>tombow_line</title><path d="M642.69,494.18c-1.35.2-2.79,0.81-4,.52-6.38-1.5-12.57,0-18.82.81a47.37,47.37,0,0,1-5.15.24c-1.44,0-3-.38-4.29.05a11,11,0,0,1-8.3-.53c-2.59-1.09-4.45,1-7,2.73,1.31,0.63,2.12,1.38,2.87,1.32,10.59-.81,21.31-0.13,31.74-2.75a27.82,27.82,0,0,0,3.11-1.22c0.95,3.54,4.13,2,7.14,3a28.13,28.13,0,0,1-2.74.76c-3.26.49-6.51,1-9.78,1.39-10,1.09-20,2.24-30,3.12-11,1-22.1,1.58-33.14,2.53-8.75.75-17.46,1.86-26.2,2.63q-25.15,2.24-50.4,2.88c-6,.15-12,1-18,1.76-9.6,1.19-19.23.79-28.86,1-8.48.15-17,.63-25.41,1.54A326.57,326.57,0,0,1,381,517.64c-10.5,0-21-.16-31.51-0.36-4.2-.08-5.56-1.2-6.29-4.55-0.57-2.66.32-3.49,3.07-3.55,9.62-.2,19.24-0.54,28.86-0.84,5.74-.18,11.5-0.2,17.23-0.62,14.35-1.05,28.75-1.5,43-3.71,5.1-.79,10.35-0.53,15.51-1,7-.57,14-1.62,21.06-2q16-.76,31.94-0.79c10.93,0,21.85,0,32.72-1.35,2.42-.31,4.89-0.22,7.33-0.41,8-.64,16.05-1.34,24.08-2,10.46-.88,20.92-1.7,31.36-2.65,6-.55,12-1.57,18-1.89,7.32-.39,14.67-0.31,22-0.3,1.14,0,2.29.73,3.43,1.12Zm-46.29,6.56c-3.62-3.36-3.62-3.35-7.34-3.17-5.72.28-11.54-.54-17.13,1.4a0.84,0.84,0,0,1-.43,0c-5.49-1.16-10.87.41-16.3,0.65-3.06.14-6.1,0.71-9.15,1.08,2.61,2,5.44-.92,8.18,1a3.27,3.27,0,0,1-1.06.9q-7.92.93-15.85,1.74a1.75,1.75,0,0,1-.52-0.6l3-1.29c-4.87-.07-9.86-2.28-14.63.94l1.09,2.21,2.66-1.36c2.67,1.74,4,2.08,8.11,1.6,7.56-.88,15.1-1.87,22.65-2.81,1.57-.2,3.53.13,4.63-0.7,2.6-2,5.07-1.18,7.77-.72a34,34,0,0,0,7.32.33C584.89,501.65,590.33,501.17,596.41,500.73Zm-159,9.12c-1.91-.1-3.83-0.11-5.73-0.32a24.45,24.45,0,0,1-4.85-.93c-1.73-.56-3.31-0.88-4.82.4a6.34,6.34,0,0,1-5.18,1.52,4.86,4.86,0,0,0-1.8.53A61.85,61.85,0,0,0,437.39,509.85Zm76.78-5.68c1.49,0.83,2.9,2.27,4.2,2.18,1.56-.11,3-1.52,4.62-2.41C519.11,502.77,517.86,502.8,514.17,504.16Zm-25.81,1.66-0.07-1.12-3.71.23a1.51,1.51,0,0,0,1.4,1.12C486.77,506,487.57,505.91,488.36,505.83Z" transform="translate(-333.46 -454.36)"/><path d="M684.36,458.79a36.87,36.87,0,0,1-4.66.4c-8.48-.44-16.94-1.23-25.42-1.37-7.9-.13-15.8.46-23.71,0.61-7.34.14-14.71,0.45-22,.09-9.92-.49-19.58,1-29.11,3.21a213.83,213.83,0,0,1-30.55,4.87c-11.9,1-23.7,3.07-35.59,4.22-6.86.67-13.8,0.6-20.7,0.59a197.89,197.89,0,0,0-36.1,2.92c-6.64,1.22-13.19,3.1-20.07,2.65-1.68-.11-3.39.6-5.11,0.76-5.28.5-10.56,0.92-15.85,1.36-9.17.76-18.26,2.46-27.53,2.23-5.46-.14-10.94.13-16.4,0.45-5.87.34-11.71,1.14-17.57,1.41s-11.49.13-17.24,0.09c-1.75,0-3-.81-3.25-3.14a22.33,22.33,0,0,1,2.72-.51c10.63-.69,21.26-1.42,31.9-2,6.9-.36,13.82-0.43,20.72-0.63,2.45-.07,4.9,0,7.34-0.22,10.18-.84,20.39-1.52,30.53-2.72,8.14-1,16.19-2.71,24.3-3.89s16.51-2.25,24.79-3.13c6.28-.67,12.6-1,18.91-1.43,3.3-.24,6.61-0.42,9.91-0.67,4.3-.32,8.6-0.92,12.91-1,7-.11,14,0.12,21,0.21a3.37,3.37,0,0,0,1.28,0c4.09-1.88,8.52-1.11,12.76-1.7a9.61,9.61,0,0,0,3.34-.83c7.74-4.33,16.44-4.89,24.89-6,6.06-.8,12.29-0.38,18.44-0.31,8.9,0.11,17.77.32,26.67-.46,6.87-.6,13.81-0.6,20.71-0.53,7.77,0.07,15.53.56,23.3,0.79,3.14,0.09,6.29-.1,9.42,0C681.18,455.28,683,455.82,684.36,458.79Z" transform="translate(-333.46 -454.36)"/></svg>